<svg id="giftbox" xmlns="http://www.w3.org/2000/svg" viewBox="0 0 38 37.974">
  <defs>
    <style>
      .cls-1 {
        fill: #ffc73b;
      }

      .cls-2 {
        fill: #efb025;
      }

      .cls-3 {
        fill: #ff4440;
      }

      .cls-4 {
        fill: #ea2f2f;
      }
    </style>
  </defs>
  <path id="Path_2" data-name="Path 2" class="cls-1" d="M4.209,18.157H35.681V41.5H4.209Zm0,0" transform="translate(-0.945 -4.113)"/>
  <path id="Path_3" data-name="Path 3" class="cls-2" d="M4.209,18.157H35.681v4.574H4.209Zm0,0" transform="translate(-0.945 -4.113)"/>
  <path id="Path_4" data-name="Path 4" class="cls-1" d="M.756,10.6H37.584v7.858H.756Zm0,0" transform="translate(-0.17 -2.416)"/>
  <path id="Path_5" data-name="Path 5" class="cls-3" d="M20.44,12.692q-.359.417-.7.846a31.966,31.966,0,0,0-6.7,15.371,32.13,32.13,0,0,1-2.6-4.055,33.779,33.779,0,0,0-4.023,3.085A38.645,38.645,0,0,1,14.822,8.978c.18-.22.363-.436.548-.652l2.361,2.034,2.414,2.079C20.244,12.522,20.342,12.607,20.44,12.692Zm0,0" transform="translate(-1.441 -1.906)"/>
  <path id="Path_6" data-name="Path 6" class="cls-3" d="M38.524,27.939A33.78,33.78,0,0,0,34.5,24.855a32.13,32.13,0,0,1-2.6,4.055,31.948,31.948,0,0,0-4.359-12.042,31.858,31.858,0,0,0-2.34-3.329q-.345-.428-.7-.846l.295-.253,2.415-2.079L29.57,8.325q.278.323.548.651a38.587,38.587,0,0,1,4.092,6.055A38.668,38.668,0,0,1,38.524,27.939Zm0,0" transform="translate(-5.5 -1.906)"/>
  <path id="Path_7" data-name="Path 7" class="cls-4" d="M34.211,15.221l-6.667,1.835a31.858,31.858,0,0,0-2.34-3.329l-.409-1.1-.295-.793,2.709-1.286,2.91-1.382A38.587,38.587,0,0,1,34.211,15.221Zm0,0" transform="translate(-5.5 -2.095)"/>
  <path id="Path_8" data-name="Path 8" class="cls-4" d="M21.689,11.834l-.295.793-.408,1.1a31.729,31.729,0,0,0-2.34,3.329L11.98,15.221a38.555,38.555,0,0,1,4.091-6.054l2.91,1.381Zm0,0" transform="translate(-2.689 -2.095)"/>
  <g id="Group_4" data-name="Group 4" transform="translate(3.67 0.585)">
    <path id="Path_9" data-name="Path 9" class="cls-3" d="M35.14,1.057,24.5,6.11l2.044,5.5L37.9,8.48a2.626,2.626,0,0,0,1.764-3.447l-.937-2.52A2.626,2.626,0,0,0,35.14,1.057Zm0,0" transform="translate(-9.17 -0.802)"/>
    <path id="Path_10" data-name="Path 10" class="cls-3" d="M9.423,1.057,20.063,6.11l-2.044,5.5L6.663,8.48A2.626,2.626,0,0,1,4.9,5.034l.937-2.52A2.626,2.626,0,0,1,9.423,1.057Zm0,0" transform="translate(-4.733 -0.802)"/>
    <path id="Path_11" data-name="Path 11" class="cls-3" d="M25.207,5.21H21.87a1.654,1.654,0,0,0-1.654,1.653v4.848a1.654,1.654,0,0,0,1.654,1.654h3.336a1.654,1.654,0,0,0,1.654-1.654V6.864A1.654,1.654,0,0,0,25.207,5.21Zm0,0" transform="translate(-8.209 -1.792)"/>
    <path id="Path_12" data-name="Path 12" class="cls-3" d="M20.72,20.728h5.864v21.35H20.72Zm0,0" transform="translate(-8.322 -5.275)"/>
  </g>
  <path id="Path_13" data-name="Path 13" class="cls-4" d="M20.72,20.728h5.864v2.58H20.72Zm0,0" transform="translate(-4.651 -4.69)"/>
  <path id="Path_14" data-name="Path 14" d="M37.414,7.641H34.32a3.2,3.2,0,0,0,.395-2.981l-.938-2.52A3.212,3.212,0,0,0,29.388.358l-7.42,3.524a2.228,2.228,0,0,0-1.3-.417H17.332a2.229,2.229,0,0,0-1.3.417L8.612.357A3.212,3.212,0,0,0,4.224,2.14L3.286,4.66a3.22,3.22,0,0,0,.152,2.583,3.164,3.164,0,0,0,.243.4H.587A.586.586,0,0,0,0,8.228V12.45a.587.587,0,1,0,1.173,0V8.814H5.247c.065.023.131.044.2.063l4.924,1.355A39.178,39.178,0,0,0,7.483,15.5H1.173v-.7A.587.587,0,0,0,0,14.8v1.29a.587.587,0,0,0,.587.587H2.678V37.436a.586.586,0,0,0,.587.587H34.736a.586.586,0,0,0,.587-.587V34.03a.587.587,0,1,0-1.173,0v2.819H22.519V17.033a31.406,31.406,0,0,1,3.3,10.1.586.586,0,0,0,.435.483.578.578,0,0,0,.145.018.586.586,0,0,0,.468-.233,32.7,32.7,0,0,0,2.335-3.566,33.426,33.426,0,0,1,3.428,2.681A.586.586,0,0,0,33.6,26a39.336,39.336,0,0,0-2.579-9.324h3.124V31.684a.587.587,0,0,0,1.173,0V16.672h2.092A.586.586,0,0,0,38,16.086V8.228A.586.586,0,0,0,37.414,7.641ZM29.891,1.417a2.039,2.039,0,0,1,2.786,1.132l.937,2.52a2.04,2.04,0,0,1-1.37,2.677l-9.336,2.57V7.5c2.1-1.285,7.33-3.935,8.632-2.1a.586.586,0,1,0,.957-.678c-1-1.419-3.122-1.488-6.294-.2a27.935,27.935,0,0,0-3.294,1.62V5.7a2.23,2.23,0,0,0-.182-.885ZM17.332,4.638h3.336A1.068,1.068,0,0,1,21.736,5.7v4.848a1.068,1.068,0,0,1-1.067,1.067H17.332a1.068,1.068,0,0,1-1.067-1.067V5.7A1.068,1.068,0,0,1,17.332,4.638ZM16.346,15.5a31.279,31.279,0,0,1,1.829-2.706h1.65A31.148,31.148,0,0,1,21.653,15.5ZM4.482,6.709a2.018,2.018,0,0,1-.1-1.64l.938-2.52A2.039,2.039,0,0,1,8.109,1.417l7.165,3.4a2.226,2.226,0,0,0-.182.885v.466a28.032,28.032,0,0,0-3.352-1.654c-3.172-1.283-5.29-1.214-6.294.2A.586.586,0,1,0,6.4,5.4c1.314-1.855,6.632.863,8.69,2.133v2.783L5.756,7.746A2.017,2.017,0,0,1,4.482,6.709Zm10.873,4.9a2.25,2.25,0,0,0,1.416,1.117,32.629,32.629,0,0,0-5.517,12.846,32.094,32.094,0,0,1-1.739-2.85.586.586,0,0,0-.836-.212,33.977,33.977,0,0,0-2.857,2.086,38.317,38.317,0,0,1,5.735-14.032Zm-11.5,5.068H6.975A39.346,39.346,0,0,0,4.4,26a.586.586,0,0,0,.971.523,33.4,33.4,0,0,1,3.428-2.681A32.687,32.687,0,0,0,11.13,27.4a.586.586,0,0,0,.468.234.579.579,0,0,0,.145-.019.586.586,0,0,0,.435-.483,31.422,31.422,0,0,1,3.3-10.1V36.849H3.851Zm12.8,20.177V16.672h4.691V36.849ZM29.321,22.505a.587.587,0,0,0-.836.212,32.052,32.052,0,0,1-1.739,2.85,32.62,32.62,0,0,0-5.517-12.846A2.249,2.249,0,0,0,22.645,11.6l3.8-1.046a38.337,38.337,0,0,1,5.734,14.032A34.029,34.029,0,0,0,29.321,22.505ZM36.827,15.5h-6.31a39.208,39.208,0,0,0-2.885-5.268l4.923-1.355c.067-.019.133-.04.2-.063h4.074Zm0,0" transform="translate(0 -0.048)"/>
</svg>
