<svg xmlns="http://www.w3.org/2000/svg" viewBox="0 0 21 17.442">
  <defs>
    <style>
      .cls-1 {
        fill: #fff;
      }
    </style>
  </defs>
  <g id="left-arrow" transform="translate(21 17.442) rotate(180)">
    <g id="Group_3" data-name="Group 3" transform="translate(0 0)">
      <path id="Path_1" data-name="Path 1" class="cls-1" d="M19.82,8.769l.033.007H5.8l4.418-4.427a1.16,1.16,0,0,0,0-1.631L9.53,2.03a1.15,1.15,0,0,0-1.623,0L.335,9.6a1.158,1.158,0,0,0,0,1.629L7.907,18.8a1.151,1.151,0,0,0,1.623,0l.687-.688a1.137,1.137,0,0,0,.335-.811,1.1,1.1,0,0,0-.335-.8L5.75,12.055H19.835A1.19,1.19,0,0,0,21,10.877V9.9A1.167,1.167,0,0,0,19.82,8.769Z" transform="translate(0 -1.694)"/>
    </g>
  </g>
</svg>
